<?xml version="1.0" encoding="iso-8859-1"?>
<!-- Uploaded to: SVG Repo, www.svgrepo.com, Generator: SVG Repo Mixer Tools -->
<!DOCTYPE svg PUBLIC "-//W3C//DTD SVG 1.1//EN" "http://www.w3.org/Graphics/SVG/1.1/DTD/svg11.dtd">
<svg fill="#000000" version="1.1" id="Capa_1" xmlns="http://www.w3.org/2000/svg" xmlns:xlink="http://www.w3.org/1999/xlink" 
	 width="800px" height="800px" viewBox="0 0 50.057 50.057"
	 xml:space="preserve">
<g>
	<g>
		<path d="M6.301,14.6c5.008-2.849,11.671-2.849,18.728-2.849c7.055,0,13.719,0,18.729,2.849c1.013,0.578,1.929,1.256,2.752,2.031
			c-1.52-7.555-7.108-13.208-14.442-15.429c-0.637-0.126-1.257-0.219-1.861-0.279c2.844,1.448,4.483,3.101,4.622,3.245
			c0.397,0.414,0.385,1.074-0.03,1.472c-0.203,0.194-0.462,0.29-0.721,0.29c-0.273,0-0.547-0.107-0.751-0.32
			c-0.182-0.189-3.291-3.317-8.544-4.419c-5.407,1.115-8.621,4.372-8.666,4.418c-0.204,0.213-0.478,0.321-0.752,0.321
			c-0.259,0-0.52-0.097-0.721-0.29c-0.415-0.398-0.429-1.058-0.03-1.472c0.137-0.144,1.779-1.8,4.625-3.248
			c-0.129,0.012-0.253,0.016-0.384,0.033C11.097,2.977,5.127,8.78,3.549,16.63C4.372,15.855,5.286,15.177,6.301,14.6z"/>
		<path d="M50.057,34.448c0-6.583-1.147-11.056-3.152-14.106c-4.276-6.501-12.467-6.507-21.876-6.507
			c-9.409,0-17.601,0.007-21.876,6.507C1.147,23.392,0,27.865,0,34.448c0,2.585,0.583,5.057,1.639,7.336
			C1.49,40.97,1.405,40.14,1.405,39.296c0-3.687,1.481-6.631,3.951-8.895c4.352-3.986,11.784-5.843,19.672-5.843
			c7.888,0,15.321,1.858,19.671,5.843c2.47,2.264,3.951,5.207,3.951,8.895c0,0.846-0.084,1.674-0.234,2.487
			C49.473,39.504,50.057,37.033,50.057,34.448z"/>
		<path d="M16.606,45.922c1.19-0.679,1.899-1.815,1.899-2.967c0-0.474-0.125-0.924-0.33-1.341c-0.684-1.381-2.382-2.365-4.379-2.365
			c-0.175,0-0.341,0.025-0.511,0.04c-2.28,0.195-4.074,1.658-4.186,3.484c-0.196,1.591,0.136,4.788,5.556,5.958
			c7.274,1.568,10.628-1.908,10.682-1.965c0.054,0.057,3.41,3.533,10.683,1.965c5.419-1.17,5.75-4.367,5.556-5.958
			c-0.121-1.962-2.175-3.523-4.696-3.523c-0.017,0-0.031,0.005-0.049,0.005c-1.833,0.014-3.401,0.858-4.163,2.074
			c-0.309,0.493-0.498,1.04-0.498,1.626c0,1.152,0.708,2.289,1.898,2.968c-0.472-0.268-0.822-1.1-0.955-1.522
			c-0.164-0.523-0.158-1.075-0.01-1.6c0.264-0.926,1.076-1.785,2.312-2.011c2.444-0.443,3.864,1.484,3.051,3.16
			c-0.421,0.866-1.368,1.628-2.246,2.224c-5.728,3.896-10.773-2.361-10.882-2.448v-0.004l-0.002,0.002l-0.003-0.002v0.004
			c-0.108,0.086-5.155,6.345-10.881,2.448c-0.878-0.596-1.825-1.357-2.247-2.224c-0.814-1.676,0.607-3.604,3.05-3.16
			c1.237,0.225,2.05,1.085,2.313,2.011c0.149,0.524,0.154,1.076-0.01,1.6C17.428,44.824,17.077,45.654,16.606,45.922z"/>
	</g>
</g>
</svg>